<?xml version="1.0" standalone="no"?>
<!DOCTYPE svg PUBLIC "-//W3C//DTD SVG 20010904//EN"
 "http://www.w3.org/TR/2001/REC-SVG-20010904/DTD/svg10.dtd">
<svg version="1.0" xmlns="http://www.w3.org/2000/svg"
 width="7061.000000pt" height="7061.000000pt" viewBox="0 0 7061.000000 7061.000000"
 preserveAspectRatio="xMidYMid meet">
<metadata>
Created by potrace 1.16, written by Peter Selinger 2001-2019
</metadata>
<g transform="translate(0.000000,7061.000000) scale(0.100000,-0.100000)"
fill="#000000" stroke="none">
<path d="M32395 69600 c-838 -57 -1628 -340 -2284 -818 -345 -252 -669 -569
-931 -912 -402 -528 -692 -1172 -819 -1824 -153 -779 -106 -1532 144 -2281
156 -471 382 -901 675 -1285 262 -343 586 -660 931 -912 852 -621 1931 -910
2989 -802 1060 109 2008 580 2749 1368 899 957 1333 2307 1160 3611 -177 1335
-925 2502 -2059 3213 -463 290 -1045 506 -1610 596 -274 44 -683 64 -945 46z"/>
<path d="M27424 60600 c-612 -36 -1196 -194 -1744 -470 -812 -411 -1501 -1105
-1920 -1935 -158 -313 -268 -608 -354 -955 -104 -416 -148 -855 -126 -1273 34
-659 190 -1243 490 -1832 413 -813 1107 -1508 1910 -1915 1260 -637 2710 -635
3971 6 539 274 1036 684 1434 1184 423 530 732 1196 869 1871 173 851 97 1720
-221 2529 -232 590 -568 1097 -1025 1546 -487 478 -1026 810 -1670 1025 -509
170 -1093 249 -1614 219z m616 -1076 c593 -67 1178 -306 1640 -669 654 -513
1097 -1244 1249 -2060 75 -399 75 -853 0 -1245 -161 -844 -622 -1584 -1304
-2095 -466 -349 -1000 -561 -1595 -631 -172 -21 -541 -23 -700 -5 -785 89
-1462 411 -2000 951 -485 487 -809 1101 -939 1780 -75 393 -75 855 0 1250 230
1213 1098 2213 2244 2583 279 90 519 135 860 161 94 7 410 -4 545 -20z"/>
<path d="M16530 52773 c-943 -498 -2118 -1118 -2610 -1377 l-895 -473 -3
-17341 -2 -17342 3745 0 3745 0 0 18720 0 18720 -1132 -1 -1133 0 -1715 -906z"/>
<path d="M28210 32660 l0 -16420 4020 0 4020 0 0 16420 0 16420 -4020 0 -4020
0 0 -16420z"/>
<path d="M44490 32660 l0 -16421 7063 4 c5094 3 7127 7 7297 15 543 26 680 34
965 53 2200 146 4229 537 6045 1162 1690 583 3275 1362 4583 2254 l167 114 0
12822 0 12822 -188 117 c-527 329 -1209 708 -1654 921 -62 30 -176 85 -253
122 -873 419 -1920 824 -2965 1145 -2400 738 -4858 1144 -7625 1260 -653 27
-1271 30 -7227 30 l-6208 0 0 -16420z m12921 13090 c1668 -82 3062 -455 4544
-1215 1060 -543 1934 -1181 2762 -2016 518 -524 940 -1040 1351 -1652 666
-992 1188 -2087 1612 -3382 594 -1815 808 -3841 644 -6090 -105 -1448 -374
-2795 -795 -3982 -358 -1011 -744 -1835 -1232 -2633 -1068 -1745 -2571 -3130
-4352 -4010 -1394 -689 -2893 -1071 -4510 -1150 -130 -6 -1092 -10 -2542 -10
l-2333 0 0 13075 0 13075 2324 0 c1414 0 2403 -4 2527 -10z"/>
<path d="M0 28640 l0 -12400 2830 0 2830 0 0 12400 0 12400 -2830 0 -2830 0 0
-12400z"/>
</g>
</svg>
